<svg width="520" height="220" viewBox="0 0 520 220" fill="none" xmlns="http://www.w3.org/2000/svg">
  <g stroke="#171717" stroke-width="7" stroke-linecap="round" stroke-linejoin="round">
    <path d="M315 33C274 31 238 48 213 79C189 109 185 149 204 178C219 201 245 209 270 198C292 188 304 166 301 144C297 116 274 104 249 110C226 116 208 135 201 157"/>
    <path d="M281 34C277 18 286 7 303 7C321 7 332 20 328 39"/>
    <path d="M352 36C348 18 357 8 375 8C392 8 404 21 399 42"/>
    <path d="M428 54C424 37 434 27 451 27C469 27 480 40 476 60"/>
    <path d="M225 92C208 80 186 84 176 100C166 117 173 136 191 143C207 149 224 143 232 129"/>
    <path d="M294 90C274 96 264 114 270 130C277 149 296 157 314 151C333 144 343 126 335 108C327 92 311 85 294 90Z"/>
    <path d="M364 79C349 91 347 111 361 123C376 135 397 130 406 114C415 98 407 81 391 76C382 73 372 74 364 79Z"/>
    <path d="M443 106C428 116 425 136 438 149C451 162 471 160 482 146C494 131 490 111 474 102C464 97 452 99 443 106Z"/>
    <path d="M308 83C320 104 327 125 336 145C341 157 353 164 366 162C379 160 389 150 390 137C391 120 376 103 359 95C339 86 318 85 298 89"/>
    <path d="M263 162C244 166 230 178 223 195C216 212 222 223 241 223H284C286 193 302 172 325 157C311 153 297 152 283 154C276 155 269 158 263 162Z"/>
    <path d="M340 162C358 151 381 149 401 153C421 157 438 170 447 189C452 201 447 208 434 210"/>
    <path d="M145 183C127 194 109 201 90 205"/>
    <path d="M92 168C79 160 64 160 51 170C37 181 35 196 43 207"/>
    <path d="M108 167C92 157 74 154 57 157"/>
    <path d="M239 210C239 214 236 217 232 217C228 217 225 214 225 210C225 206 228 203 232 203C236 203 239 206 239 210Z" fill="#171717" stroke="none"/>
    <path d="M252 215C252 219 249 222 245 222C241 222 238 219 238 215C238 211 241 208 245 208C249 208 252 211 252 215Z" fill="#171717" stroke="none"/>
  </g>
  <text x="82" y="200" font-family="Heebo, Arial, sans-serif" font-size="66" font-weight="700" fill="#171717">תדר</text>
</svg>